<svg viewBox="-1 -1 15 16" version="1.1" xmlns="http://www.w3.org/2000/svg" xmlns:xlink="http://www.w3.org/1999/xlink"><g stroke="none" stroke-width="1" fill="none" fill-rule="evenodd"><path d="M12.4315453,9.17272282 C12.3087851,9.30148735 12.2854072,9.49759082 12.3789363,9.64979888 C12.3789363,9.65272058 12.4987787,9.85758914 12.513403,10.1385792 C12.5338455,10.5219861 12.3497052,10.8614975 11.9638648,11.1512702 C11.8264977,11.2566262 11.7709359,11.4380862 11.8294156,11.6019985 C11.8294156,11.6049202 11.9550937,11.9912663 11.7504933,12.3571255 C11.5546465,12.7083412 11.1191324,12.9600619 10.4585229,13.1005307 C9.92946228,13.2146692 9.21040804,13.2351736 8.32763852,13.1649129 L8.28671843,13.1649129 C6.40722518,13.2058866 4.50728936,12.9600619 4.48681184,12.9571227 L4.48389397,12.9571227 L4.18866484,12.9220099 C4.20620701,12.8400449 4.2149781,12.7522541 4.2149781,12.6644283 L4.2149781,7.90540698 C4.2149781,7.77954666 4.19450058,7.65662552 4.15945119,7.54246948 C4.21204275,7.346366 4.35821586,6.91028115 4.70311868,6.53854357 C5.25052524,6.1039458 5.63912624,5.46096295 5.97726729,4.85984606 C6.34242049,4.21070491 6.66099259,3.53514603 6.95028114,2.84895009 C7.11476519,2.45875509 7.35848604,2.08287115 7.30998299,1.64419701 C7.27998308,1.37286426 7.15280235,1.03492737 7.39212018,0.810971569 C7.67193876,0.549121212 8.07617745,0.960695319 8.23412687,1.17952503 C8.5322564,1.59220133 8.52056744,2.32976313 8.19904253,3.3073238 C7.7079666,4.79709085 7.66706399,5.58146975 8.05582224,5.92685959 C8.2487337,6.09953702 8.50594314,6.1083196 8.69301885,6.04099815 C8.87132348,6.00002443 9.04085702,5.96491161 9.20163695,5.93856387 C9.21332591,5.93564217 9.22793273,5.93272048 9.23962169,5.92978129 C10.136998,5.73367782 11.7446575,5.61367838 12.3029493,6.12296306 C12.7764656,6.55610873 12.4403164,7.12979317 12.4023142,7.19123624 C12.2941783,7.35514858 12.3263272,7.56879972 12.4724829,7.70052093 C12.4754007,7.70346012 12.7823188,7.99319779 12.7969257,8.38246555 C12.8086146,8.64296878 12.6858544,8.9092979 12.4315453,9.17272282 L12.4315453,9.17272282 Z M1.21596592,13.0917481 C0.979199038,13.0917481 0.789205455,12.8985838 0.789205455,12.6644283 L0.789205455,7.90540698 C0.789205455,7.6683298 0.982134381,7.47808721 1.21596592,7.47808721 L2.99901218,7.47808721 C3.23576159,7.47808721 3.42575517,7.67125149 3.42575517,7.90540698 L3.42575517,12.6615066 C3.42575517,12.8985838 3.23284372,13.0888264 2.99901218,13.0888264 L1.21596592,13.0888264 L1.21596592,13.0917481 Z M13.1798482,9.51515598 C13.4663062,9.14929678 13.6036733,8.75710733 13.5861486,8.35319611 C13.5686064,7.90832868 13.3698243,7.56001714 13.206144,7.346366 C13.3961375,6.87222913 13.4692241,6.12588476 12.8349279,5.54637442 C12.3701652,5.12197634 11.5809597,4.93173376 10.4877541,4.98441175 C9.71900866,5.01952457 9.07594136,5.16295006 9.04962811,5.16881094 L9.04669276,5.16881094 C8.90055461,5.19514119 8.74564536,5.22733232 8.58780078,5.26246264 C8.57611182,5.07514175 8.60826082,4.60976996 8.95316364,3.56196614 C9.36239941,2.31513716 9.33900402,1.36098504 8.87715922,0.722935824 C8.39195398,0.0526779867 7.61735535,0 7.38935956,0 C7.17013485,0 6.96845231,0.090730003 6.82523203,0.257564039 C6.50077177,0.635127516 6.53875651,1.3317156 6.57969406,1.6536619 C6.19385369,2.68976144 5.11233697,5.23027151 4.19743593,5.93564217 C4.17989376,5.94734645 4.16528693,5.96198991 4.1506801,5.97659839 C3.88174676,6.26051017 3.70052426,6.5678305 3.57776401,6.83709881 C3.40529513,6.74344711 3.2094658,6.69076913 2.99901218,6.69076913 L1.21596592,6.69076913 C0.543667492,6.69076913 0,7.23807084 0,7.90832868 L0,12.6644283 C0,13.3376079 0.546602835,13.8820054 1.21596592,13.8820054 L2.99901218,13.8820054 C3.2591395,13.8820054 3.50175959,13.8000405 3.70052426,13.6595542 L4.38742951,13.7415191 C4.49266506,13.756145 6.36338723,13.9932222 8.28380056,13.9551702 C8.63163873,13.9815005 8.95901686,13.9961439 9.2629996,13.9961439 C9.786242,13.9961439 10.2422161,13.9551702 10.6222033,13.8732228 C11.5166443,13.6829802 12.1275626,13.302495 12.4373985,12.7434715 C12.6741654,12.3161343 12.6741654,11.8917537 12.6361632,11.6224679 C13.2178329,11.095653 13.3201331,10.5132035 13.2996905,10.1034489 C13.2880016,9.86637172 13.2353751,9.66442486 13.1798482,9.51515598 L13.1798482,9.51515598 Z" id="Fill-1" stroke="#4A4A4A" stroke-width="0.2" fill="#4A4A4A"></path></g></svg>