<svg viewBox="0 0 20 16" version="1.1" xmlns="http://www.w3.org/2000/svg" xmlns:xlink="http://www.w3.org/1999/xlink"><g stroke="none" stroke-width="1" fill="none" fill-rule="evenodd" transform="translate(0, 3)"><path d="M9.13750382,0 C3.14101694,0 0.142773497,5.81373167 0.0475911657,6.05199936 C0,6.14730644 0,6.24261351 0,6.33792059 C0,6.7191489 1.09459681,8.38702274 2.33196712,9.62601473 C4.33079608,11.6274633 6.6627632,12.6758412 9.18509498,12.6758412 C15.1339907,12.6758412 18.1322341,6.86210951 18.2750076,6.62384182 C18.37019,6.43322767 18.37019,6.24261351 18.2750076,6.0996529 C18.084643,5.81373167 15.1339907,0 9.13750382,0 L9.13750382,0 Z M9.13750382,11.4368492 C4.56875191,11.4368492 1.90364663,7.38629843 1.23737031,6.33792059 C1.85605546,5.24188921 4.52116074,1.19133846 9.13750382,1.19133846 C13.7062557,1.19133846 16.371361,5.24188921 17.0376373,6.29026705 C16.371361,7.43395197 13.7062557,11.4368492 9.13750382,11.4368492 L9.13750382,11.4368492 Z" id="Shape" fill="#4A4A4A"></path><path d="M9.18349766,3.11538462 C7.27985103,3.11538462 5.70934256,4.68795138 5.70934256,6.54643937 C5.70934256,8.40492736 7.27985103,9.97749413 9.18349766,9.97749413 C11.0871443,9.97749413 12.6100616,8.40492736 12.6100616,6.54643937 C12.6100616,4.68795138 11.0871443,3.11538462 9.18349766,3.11538462 L9.18349766,3.11538462 Z M9.18349766,8.83380921 C7.94612735,8.83380921 6.8991217,7.83308491 6.8991217,6.54643937 C6.8991217,5.25979384 7.89853618,4.25906953 9.18349766,4.25906953 C10.420868,4.25906953 11.4678736,5.25979384 11.4678736,6.54643937 C11.4678736,7.83308491 10.420868,8.83380921 9.18349766,8.83380921 L9.18349766,8.83380921 Z" id="Shape" fill="#4A4A4A"></path></g></svg>